<mxfile host="65bd71144e">
    <diagram id="ZGFyaC9lUgvo1bjeZQkZ" name="Page-1">
        <mxGraphModel dx="4258" dy="1280" grid="1" gridSize="10" guides="1" tooltips="1" connect="1" arrows="1" fold="1" page="1" pageScale="1" pageWidth="1920" pageHeight="1200" math="0" shadow="0">
            <root>
                <mxCell id="0"/>
                <mxCell id="1" parent="0"/>
                <mxCell id="3" value="App" style="rounded=0;whiteSpace=wrap;html=1;verticalAlign=top;fontSize=50;" vertex="1" parent="1">
                    <mxGeometry x="-460" y="20" width="2200" height="1170" as="geometry"/>
                </mxCell>
                <mxCell id="4" value="Header" style="rounded=1;whiteSpace=wrap;html=1;fontSize=35;" vertex="1" parent="1">
                    <mxGeometry x="-400" y="120" width="2080" height="60" as="geometry"/>
                </mxCell>
                <mxCell id="5" value="ReservationControl&lt;br style=&quot;font-size: 34px&quot;&gt;&lt;span style=&quot;font-size: 25px&quot;&gt;This componet will determine which view to show via state.&lt;/span&gt;" style="rounded=0;whiteSpace=wrap;html=1;fontSize=35;verticalAlign=top;" vertex="1" parent="1">
                    <mxGeometry x="-385" y="210" width="2050" height="920" as="geometry"/>
                </mxCell>
                <mxCell id="6" value="ReservationList" style="rounded=1;whiteSpace=wrap;html=1;fontSize=25;verticalAlign=top;" vertex="1" parent="1">
                    <mxGeometry x="-260" y="360" width="320" height="630" as="geometry"/>
                </mxCell>
                <mxCell id="7" value="Camp Site&lt;br&gt;&lt;font style=&quot;font-size: 21px&quot;&gt;clicking will show you the merch details&lt;/font&gt;" style="rounded=1;whiteSpace=wrap;html=1;fontSize=25;verticalAlign=top;" vertex="1" parent="1">
                    <mxGeometry x="-201.25" y="430" width="202.5" height="120" as="geometry"/>
                </mxCell>
                <mxCell id="8" value="Camp Site" style="rounded=1;whiteSpace=wrap;html=1;fontSize=21;" vertex="1" parent="1">
                    <mxGeometry x="-201" y="580" width="201.25" height="120" as="geometry"/>
                </mxCell>
                <mxCell id="9" value="" style="rounded=0;whiteSpace=wrap;html=1;fontSize=21;verticalAlign=top;" vertex="1" parent="1">
                    <mxGeometry x="-240.38" y="800" width="280" height="120" as="geometry"/>
                </mxCell>
            </root>
        </mxGraphModel>
    </diagram>
</mxfile>